# xmcd
#
# Track frame offsets: 
#        150
#        14512
#        28822
#        42595
#        59702
#        75617
#        94495
#        106862
#        121707
#        160647
#        191687
#
# Disc length: 2753 seconds
#
# Revision: 0
# Processed by: cddbd v1.5.1PL0 Copyright (c) Steve Scherf et al.
# Submitted via: ExactAudioCopy v0.95a5
#
DISCID=8f0abf0b
DTITLE=Hanse Schoierer Band - Da konn I lacha
DYEAR=1992
DGENRE=Rockblues
TTITLE0=Da konn I lacha
TTITLE1=Dann geht nix mehr
TTITLE2=Sexualrausch in China
TTITLE3=I waar gern deppert
TTITLE4=Abgestürzter Yuppie
TTITLE5=Gaunerleben
TTITLE6=Baublues
TTITLE7=In der U-Bahn
TTITLE8=Es is zum Woana and Tierversuch
TTITLE9=München
TTITLE10=Finale ''Viele Hähnchen''
EXTD=
EXTT0=
EXTT1=
EXTT2=
EXTT3=
EXTT4=
EXTT5=
EXTT6=
EXTT7=
EXTT8=
EXTT9=
EXTT10=
PLAYORDER=
